<svg width="75" height="17" viewBox="0 0 75 17" fill="none" xmlns="http://www.w3.org/2000/svg">
<path d="M7.99365 10.186H3.31201L2.33252 13H0.149414L4.71484 0.914062H6.59912L11.1729 13H8.98145L7.99365 10.186ZM3.90137 8.49268H7.4043L5.65283 3.479L3.90137 8.49268ZM19.8223 8.60059C19.8223 9.98958 19.5068 11.0991 18.876 11.9292C18.2451 12.7537 17.3984 13.166 16.3359 13.166C15.3509 13.166 14.5623 12.8423 13.9702 12.1948V16.4531H11.9531V4.01855H13.8125L13.8955 4.93164C14.4876 4.21224 15.2928 3.85254 16.311 3.85254C17.4067 3.85254 18.2645 4.26204 18.8843 5.08105C19.5096 5.89453 19.8223 7.0262 19.8223 8.47607V8.60059ZM17.8135 8.42627C17.8135 7.52979 17.6336 6.81868 17.2739 6.29297C16.9198 5.76725 16.4106 5.50439 15.7466 5.50439C14.922 5.50439 14.3299 5.84473 13.9702 6.52539V10.5098C14.3354 11.207 14.9331 11.5557 15.7632 11.5557C16.4051 11.5557 16.9059 11.2983 17.2656 10.7837C17.6309 10.2635 17.8135 9.4777 17.8135 8.42627ZM29.4014 8.60059C29.4014 9.98958 29.0859 11.0991 28.4551 11.9292C27.8242 12.7537 26.9775 13.166 25.915 13.166C24.93 13.166 24.1414 12.8423 23.5493 12.1948V16.4531H21.5322V4.01855H23.3916L23.4746 4.93164C24.0667 4.21224 24.8719 3.85254 25.8901 3.85254C26.9858 3.85254 27.8436 4.26204 28.4634 5.08105C29.0887 5.89453 29.4014 7.0262 29.4014 8.47607V8.60059ZM27.3926 8.42627C27.3926 7.52979 27.2127 6.81868 26.853 6.29297C26.4989 5.76725 25.9897 5.50439 25.3257 5.50439C24.5011 5.50439 23.909 5.84473 23.5493 6.52539V10.5098C23.9146 11.207 24.5122 11.5557 25.3423 11.5557C25.9842 11.5557 26.485 11.2983 26.8447 10.7837C27.21 10.2635 27.3926 9.4777 27.3926 8.42627ZM41.8608 9.88721C41.8608 9.35596 41.6727 8.94645 41.2964 8.65869C40.9256 8.37093 40.2533 8.0804 39.2793 7.78711C38.3053 7.49382 37.5306 7.16732 36.9551 6.80762C35.8538 6.11589 35.3032 5.21387 35.3032 4.10156C35.3032 3.1276 35.6989 2.3252 36.4902 1.69434C37.2871 1.06348 38.3192 0.748047 39.5864 0.748047C40.4276 0.748047 41.1774 0.902995 41.8359 1.21289C42.4945 1.52279 43.0119 1.96549 43.3882 2.54102C43.7645 3.111 43.9526 3.74463 43.9526 4.44189H41.8608C41.8608 3.81104 41.6616 3.31852 41.2632 2.96436C40.8703 2.60465 40.3058 2.4248 39.5698 2.4248C38.8836 2.4248 38.3496 2.57145 37.9678 2.86475C37.5915 3.15804 37.4033 3.56755 37.4033 4.09326C37.4033 4.53597 37.6081 4.90674 38.0176 5.20557C38.4271 5.49886 39.1022 5.78662 40.043 6.06885C40.9837 6.34554 41.7391 6.66374 42.3091 7.02344C42.8791 7.3776 43.2969 7.78711 43.5625 8.25195C43.8281 8.71126 43.9609 9.25081 43.9609 9.87061C43.9609 10.8778 43.5736 11.6802 42.7988 12.2778C42.0296 12.87 40.9837 13.166 39.6611 13.166C38.7868 13.166 37.9816 13.0055 37.2456 12.6846C36.5151 12.3581 35.9451 11.9098 35.5356 11.3398C35.1317 10.7699 34.9297 10.1058 34.9297 9.34766H37.0298C37.0298 10.0339 37.2567 10.5651 37.7104 10.9414C38.1642 11.3177 38.8145 11.5059 39.6611 11.5059C40.3916 11.5059 40.9395 11.3592 41.3047 11.0659C41.6755 10.7671 41.8608 10.3742 41.8608 9.88721ZM48.1362 1.83545V4.01855H49.7217V5.5127H48.1362V10.5264C48.1362 10.8695 48.2026 11.1185 48.3354 11.2734C48.4738 11.4229 48.7173 11.4976 49.0659 11.4976C49.2983 11.4976 49.5335 11.4699 49.7715 11.4146V12.9751C49.3122 13.1024 48.8695 13.166 48.4434 13.166C46.8939 13.166 46.1191 12.311 46.1191 10.6011V5.5127H44.6416V4.01855H46.1191V1.83545H48.1362ZM50.6431 8.42627C50.6431 7.54639 50.8174 6.75505 51.166 6.05225C51.5146 5.34391 52.0044 4.8016 52.6353 4.42529C53.2661 4.04346 53.991 3.85254 54.8101 3.85254C56.022 3.85254 57.0042 4.24268 57.7568 5.02295C58.515 5.80322 58.9245 6.83805 58.9854 8.12744L58.9937 8.60059C58.9937 9.486 58.8221 10.2773 58.479 10.9746C58.1414 11.6719 57.6545 12.2114 57.0181 12.5933C56.3872 12.9751 55.6567 13.166 54.8267 13.166C53.5594 13.166 52.5439 12.7454 51.7803 11.9043C51.0221 11.0576 50.6431 9.93148 50.6431 8.52588V8.42627ZM52.6602 8.60059C52.6602 9.52474 52.8511 10.2497 53.2329 10.7754C53.6147 11.2956 54.146 11.5557 54.8267 11.5557C55.5073 11.5557 56.0358 11.29 56.4121 10.7588C56.7939 10.2275 56.9849 9.45003 56.9849 8.42627C56.9849 7.51872 56.7884 6.79932 56.3955 6.26807C56.0081 5.73682 55.4797 5.47119 54.8101 5.47119C54.1515 5.47119 53.6286 5.73405 53.2412 6.25977C52.8538 6.77995 52.6602 7.56022 52.6602 8.60059ZM65.4019 5.86133C65.1362 5.81706 64.8623 5.79492 64.5801 5.79492C63.6559 5.79492 63.0334 6.14909 62.7124 6.85742V13H60.6953V4.01855H62.6211L62.6709 5.02295C63.1579 4.24268 63.833 3.85254 64.6963 3.85254C64.984 3.85254 65.222 3.89128 65.4102 3.96875L65.4019 5.86133ZM70.4653 13.166C69.187 13.166 68.1494 12.7648 67.3525 11.9624C66.5612 11.1545 66.1655 10.0809 66.1655 8.7417V8.49268C66.1655 7.59619 66.3371 6.79655 66.6802 6.09375C67.0288 5.38542 67.5158 4.8348 68.1411 4.44189C68.7664 4.04899 69.4637 3.85254 70.2329 3.85254C71.4559 3.85254 72.3994 4.24268 73.0635 5.02295C73.7331 5.80322 74.0679 6.90723 74.0679 8.33496V9.14844H68.1992C68.2601 9.88997 68.5063 10.4766 68.938 10.9082C69.3752 11.3398 69.923 11.5557 70.5815 11.5557C71.5057 11.5557 72.2583 11.1821 72.8394 10.4351L73.9268 11.4727C73.5671 12.0094 73.0856 12.4272 72.4824 12.7261C71.8848 13.0194 71.2124 13.166 70.4653 13.166ZM70.2246 5.47119C69.6712 5.47119 69.223 5.66488 68.8799 6.05225C68.5423 6.43962 68.3265 6.97917 68.2324 7.6709H72.0757V7.52148C72.0314 6.84635 71.8516 6.33724 71.5361 5.99414C71.2207 5.64551 70.7835 5.47119 70.2246 5.47119Z" fill="white"/>
</svg>
