<svg width="91" height="17" viewBox="0 0 91 17" fill="none" xmlns="http://www.w3.org/2000/svg">
<path d="M10.4922 11.4312C10.055 12.0011 9.44906 12.4328 8.67432 12.7261C7.89958 13.0194 7.01969 13.166 6.03467 13.166C5.02197 13.166 4.12549 12.9364 3.34521 12.4771C2.56494 12.0177 1.96175 11.362 1.53564 10.5098C1.11507 9.65202 0.896484 8.65316 0.879883 7.51318V6.56689C0.879883 4.74072 1.31706 3.31576 2.19141 2.29199C3.06576 1.2627 4.28597 0.748047 5.85205 0.748047C7.19678 0.748047 8.26481 1.08008 9.05615 1.74414C9.84749 2.4082 10.3234 3.36556 10.4839 4.61621H8.42529C8.19287 3.16081 7.34896 2.43311 5.89355 2.43311C4.9528 2.43311 4.23617 2.77344 3.74365 3.4541C3.25667 4.12923 3.00488 5.12256 2.98828 6.43408V7.36377C2.98828 8.66976 3.26221 9.68522 3.81006 10.4102C4.36344 11.1296 5.12988 11.4893 6.10938 11.4893C7.18294 11.4893 7.94661 11.2458 8.40039 10.7588V8.39307H5.91016V6.79932H10.4922V11.4312ZM12.2271 8.42627C12.2271 7.54639 12.4014 6.75505 12.75 6.05225C13.0986 5.34391 13.5884 4.8016 14.2192 4.42529C14.8501 4.04346 15.575 3.85254 16.394 3.85254C17.606 3.85254 18.5882 4.24268 19.3408 5.02295C20.099 5.80322 20.5085 6.83805 20.5693 8.12744L20.5776 8.60059C20.5776 9.486 20.4061 10.2773 20.063 10.9746C19.7254 11.6719 19.2384 12.2114 18.6021 12.5933C17.9712 12.9751 17.2407 13.166 16.4106 13.166C15.1434 13.166 14.1279 12.7454 13.3643 11.9043C12.6061 11.0576 12.2271 9.93148 12.2271 8.52588V8.42627ZM14.2441 8.60059C14.2441 9.52474 14.4351 10.2497 14.8169 10.7754C15.1987 11.2956 15.73 11.5557 16.4106 11.5557C17.0913 11.5557 17.6198 11.29 17.9961 10.7588C18.3779 10.2275 18.5688 9.45003 18.5688 8.42627C18.5688 7.51872 18.3724 6.79932 17.9795 6.26807C17.5921 5.73682 17.0636 5.47119 16.394 5.47119C15.7355 5.47119 15.2126 5.73405 14.8252 6.25977C14.4378 6.77995 14.2441 7.56022 14.2441 8.60059ZM21.9058 8.42627C21.9058 7.54639 22.0801 6.75505 22.4287 6.05225C22.7773 5.34391 23.2671 4.8016 23.8979 4.42529C24.5288 4.04346 25.2537 3.85254 26.0728 3.85254C27.2847 3.85254 28.2669 4.24268 29.0195 5.02295C29.7777 5.80322 30.1872 6.83805 30.248 8.12744L30.2563 8.60059C30.2563 9.486 30.0848 10.2773 29.7417 10.9746C29.4041 11.6719 28.9172 12.2114 28.2808 12.5933C27.6499 12.9751 26.9194 13.166 26.0894 13.166C24.8221 13.166 23.8066 12.7454 23.043 11.9043C22.2848 11.0576 21.9058 9.93148 21.9058 8.52588V8.42627ZM23.9229 8.60059C23.9229 9.52474 24.1138 10.2497 24.4956 10.7754C24.8774 11.2956 25.4087 11.5557 26.0894 11.5557C26.77 11.5557 27.2985 11.29 27.6748 10.7588C28.0566 10.2275 28.2476 9.45003 28.2476 8.42627C28.2476 7.51872 28.0511 6.79932 27.6582 6.26807C27.2708 5.73682 26.7424 5.47119 26.0728 5.47119C25.4142 5.47119 24.8913 5.73405 24.5039 6.25977C24.1165 6.77995 23.9229 7.56022 23.9229 8.60059ZM31.6094 8.44287C31.6094 7.04834 31.9359 5.93604 32.5889 5.10596C33.2474 4.27035 34.119 3.85254 35.2036 3.85254C36.2274 3.85254 37.0326 4.20947 37.6191 4.92334L37.7104 4.01855H39.5283V12.7261C39.5283 13.9048 39.1603 14.8345 38.4243 15.5151C37.6938 16.1958 36.7061 16.5361 35.4609 16.5361C34.8024 16.5361 34.1577 16.3978 33.5269 16.1211C32.9015 15.8499 32.4256 15.493 32.0991 15.0503L33.0537 13.8384C33.6735 14.5744 34.4372 14.9424 35.3447 14.9424C36.0143 14.9424 36.5428 14.7598 36.9302 14.3945C37.3175 14.0348 37.5112 13.5036 37.5112 12.8008V12.1948C36.9302 12.8423 36.1554 13.166 35.187 13.166C34.1356 13.166 33.2751 12.7482 32.6055 11.9126C31.9414 11.077 31.6094 9.92041 31.6094 8.44287ZM33.6182 8.61719C33.6182 9.51921 33.8008 10.2303 34.166 10.7505C34.5368 11.2651 35.0487 11.5225 35.7017 11.5225C36.5151 11.5225 37.1183 11.1738 37.5112 10.4766V6.52539C37.1294 5.84473 36.5317 5.50439 35.7183 5.50439C35.0542 5.50439 34.5368 5.76725 34.166 6.29297C33.8008 6.81868 33.6182 7.59342 33.6182 8.61719ZM43.7534 13H41.7363V0.25H43.7534V13ZM49.9126 13.166C48.6343 13.166 47.5967 12.7648 46.7998 11.9624C46.0085 11.1545 45.6128 10.0809 45.6128 8.7417V8.49268C45.6128 7.59619 45.7843 6.79655 46.1274 6.09375C46.4761 5.38542 46.9631 4.8348 47.5884 4.44189C48.2137 4.04899 48.911 3.85254 49.6802 3.85254C50.9032 3.85254 51.8467 4.24268 52.5107 5.02295C53.1803 5.80322 53.5151 6.90723 53.5151 8.33496V9.14844H47.6465C47.7074 9.88997 47.9536 10.4766 48.3853 10.9082C48.8224 11.3398 49.3703 11.5557 50.0288 11.5557C50.953 11.5557 51.7056 11.1821 52.2866 10.4351L53.374 11.4727C53.0143 12.0094 52.5329 12.4272 51.9297 12.7261C51.332 13.0194 50.6597 13.166 49.9126 13.166ZM49.6719 5.47119C49.1185 5.47119 48.6702 5.66488 48.3271 6.05225C47.9896 6.43962 47.7738 6.97917 47.6797 7.6709H51.5229V7.52148C51.4787 6.84635 51.2988 6.33724 50.9834 5.99414C50.668 5.64551 50.2308 5.47119 49.6719 5.47119ZM61.6167 8.50928V13H59.5166V0.914062H64.1401C65.4904 0.914062 66.5612 1.26546 67.3525 1.96826C68.1494 2.67106 68.5479 3.60075 68.5479 4.75732C68.5479 5.94157 68.1577 6.86296 67.3774 7.52148C66.6027 8.18001 65.5153 8.50928 64.1152 8.50928H61.6167ZM61.6167 6.82422H64.1401C64.8872 6.82422 65.4572 6.6499 65.8501 6.30127C66.243 5.9471 66.4395 5.43799 66.4395 4.77393C66.4395 4.12093 66.2402 3.60075 65.8418 3.21338C65.4434 2.82048 64.8955 2.61849 64.1982 2.60742H61.6167V6.82422ZM72.3413 13H70.3242V0.25H72.3413V13ZM79.9116 13C79.8231 12.8285 79.7456 12.549 79.6792 12.1616C79.0373 12.8312 78.2515 13.166 77.3218 13.166C76.4198 13.166 75.6838 12.9087 75.1138 12.394C74.5438 11.8794 74.2588 11.243 74.2588 10.4849C74.2588 9.52751 74.613 8.79427 75.3213 8.28516C76.0352 7.77051 77.0534 7.51318 78.376 7.51318H79.6128V6.92383C79.6128 6.45898 79.4827 6.08822 79.2227 5.81152C78.9626 5.5293 78.5669 5.38818 78.0356 5.38818C77.5763 5.38818 77.2 5.50439 76.9067 5.73682C76.6134 5.9637 76.4668 6.25423 76.4668 6.6084H74.4497C74.4497 6.11589 74.613 5.65658 74.9395 5.23047C75.266 4.79883 75.7087 4.46126 76.2676 4.21777C76.832 3.97428 77.4601 3.85254 78.1519 3.85254C79.2033 3.85254 80.0417 4.11816 80.667 4.64941C81.2923 5.17513 81.6133 5.91667 81.6299 6.87402V10.9248C81.6299 11.7327 81.7433 12.3774 81.9702 12.8589V13H79.9116ZM77.6953 11.5474C78.0938 11.5474 78.4673 11.4505 78.8159 11.2568C79.1701 11.0632 79.4357 10.8031 79.6128 10.4766V8.7832H78.5254C77.7783 8.7832 77.2166 8.91325 76.8403 9.17334C76.464 9.43343 76.2759 9.80143 76.2759 10.2773C76.2759 10.6647 76.4032 10.9746 76.6577 11.207C76.9178 11.4339 77.2637 11.5474 77.6953 11.5474ZM86.7515 10.1113L88.5776 4.01855H90.7275L87.1582 14.3613C86.6104 15.8721 85.6807 16.6274 84.3691 16.6274C84.0758 16.6274 83.7521 16.5776 83.3979 16.478V14.9175L83.7798 14.9424C84.2889 14.9424 84.6707 14.8483 84.9253 14.6602C85.1854 14.4775 85.3901 14.1676 85.5396 13.7305L85.8301 12.9585L82.6758 4.01855H84.8506L86.7515 10.1113Z" fill="white"/>
</svg>
