<svg width="28" height="30" viewBox="0 0 28 30" fill="none" xmlns="http://www.w3.org/2000/svg">
<path d="M26.8584 24.3367C26.1584 22.6786 25.1425 21.1724 23.8674 19.9021C22.5962 18.6282 21.0903 17.6125 19.4328 16.9111C19.418 16.9037 19.4032 16.9 19.3883 16.8926C21.7002 15.2227 23.2032 12.5025 23.2032 9.43359C23.2032 4.34961 19.084 0.230469 14 0.230469C8.91605 0.230469 4.79691 4.34961 4.79691 9.43359C4.79691 12.5025 6.29984 15.2227 8.61175 16.8963C8.59691 16.9037 8.58206 16.9074 8.56722 16.9148C6.90472 17.6162 5.41292 18.6219 4.13265 19.9059C2.85872 21.1771 1.84302 22.683 1.14163 24.3404C0.452594 25.963 0.0809803 27.7027 0.0469068 29.4652C0.0459163 29.5048 0.0528633 29.5442 0.0673385 29.5811C0.0818138 29.618 0.103524 29.6516 0.131191 29.68C0.158858 29.7083 0.191921 29.7309 0.228432 29.7462C0.264943 29.7616 0.304163 29.7695 0.343782 29.7695H2.57034C2.73363 29.7695 2.86351 29.6396 2.86722 29.4801C2.94144 26.6152 4.09183 23.9322 6.12542 21.8986C8.22952 19.7945 11.0239 18.6367 14 18.6367C16.9762 18.6367 19.7705 19.7945 21.8746 21.8986C23.9082 23.9322 25.0586 26.6152 25.1328 29.4801C25.1366 29.6434 25.2664 29.7695 25.4297 29.7695H27.6563C27.6959 29.7695 27.7351 29.7616 27.7716 29.7462C27.8081 29.7309 27.8412 29.7083 27.8689 29.68C27.8965 29.6516 27.9182 29.618 27.9327 29.5811C27.9472 29.5442 27.9541 29.5048 27.9532 29.4652C27.916 27.6914 27.5487 25.9658 26.8584 24.3367ZM14 15.8164C12.2967 15.8164 10.6936 15.1521 9.48753 13.9461C8.28148 12.74 7.61722 11.1369 7.61722 9.43359C7.61722 7.73027 8.28148 6.12715 9.48753 4.92109C10.6936 3.71504 12.2967 3.05078 14 3.05078C15.7034 3.05078 17.3065 3.71504 18.5125 4.92109C19.7186 6.12715 20.3828 7.73027 20.3828 9.43359C20.3828 11.1369 19.7186 12.74 18.5125 13.9461C17.3065 15.1521 15.7034 15.8164 14 15.8164Z" fill="#FE724C"/>
</svg>
