<svg width="14" height="11" viewBox="0 0 14 11" fill="none" xmlns="http://www.w3.org/2000/svg">
<path d="M12.7783 1.22178C12.8889 1.33209 12.9766 1.46313 13.0365 1.6074C13.0963 1.75167 13.1272 1.90633 13.1272 2.06253C13.1272 2.21873 13.0963 2.37339 13.0365 2.51766C12.9766 2.66193 12.8889 2.79297 12.7783 2.90328L5.65329 10.0283C5.54298 10.1389 5.41194 10.2266 5.26767 10.2865C5.1234 10.3463 4.96873 10.3772 4.81254 10.3772C4.65634 10.3772 4.50168 10.3463 4.35741 10.2865C4.21314 10.2266 4.08209 10.1389 3.97179 10.0283L0.409286 6.46578C0.298877 6.35537 0.211295 6.2243 0.151542 6.08004C0.0917896 5.93579 0.0610352 5.78117 0.0610352 5.62503C0.0610352 5.46889 0.0917896 5.31428 0.151542 5.17002C0.211295 5.02576 0.298877 4.89469 0.409286 4.78428C0.519694 4.67387 0.650769 4.58629 0.795025 4.52654C0.939281 4.46678 1.09389 4.43603 1.25004 4.43603C1.40618 4.43603 1.56079 4.46678 1.70505 4.52654C1.8493 4.58629 1.98038 4.67387 2.09079 4.78428L4.81254 7.50841L11.0968 1.22178C11.2071 1.11119 11.3381 1.02345 11.4824 0.963589C11.6267 0.903724 11.7813 0.87291 11.9375 0.87291C12.0937 0.87291 12.2484 0.903724 12.3927 0.963589C12.5369 1.02345 12.668 1.11119 12.7783 1.22178Z" fill="#FE724C"/>
</svg>
