<svg width="34" height="38" viewBox="0 0 34 38" fill="none" xmlns="http://www.w3.org/2000/svg">
<path d="M10.6778 3.77625C8.41579 4.39965 6.16918 5.07751 3.93989 5.80925C3.73633 5.87519 3.55537 5.99698 3.41765 6.16074C3.27992 6.3245 3.19096 6.52365 3.16089 6.7355C1.84514 16.6084 4.88514 23.8118 8.51176 28.557C10.0472 30.5862 11.8781 32.3738 13.9434 33.8604C14.7651 34.4399 15.4919 34.8579 16.0643 35.1263C16.3493 35.2616 16.582 35.3519 16.7601 35.4065C16.838 35.4338 16.9184 35.4537 17 35.4659C17.0807 35.4528 17.1601 35.4329 17.2375 35.4065C17.418 35.3519 17.6508 35.2616 17.9358 35.1263C18.5058 34.8579 19.2349 34.4375 20.0566 33.8604C22.1219 32.3738 23.9528 30.5862 25.4883 28.557C29.1149 23.8141 32.1549 16.6084 30.8391 6.7355C30.8093 6.52355 30.7205 6.32427 30.5827 6.16046C30.4449 5.99666 30.2638 5.87494 30.0601 5.80925C28.514 5.30338 25.9039 4.47925 23.3223 3.77863C20.686 3.06375 18.2611 2.53413 17 2.53413C15.7413 2.53413 13.314 3.06375 10.6778 3.77863V3.77625ZM10.046 1.33C12.6229 0.629375 15.3613 0 17 0C18.6388 0 21.3771 0.629375 23.954 1.33C26.5903 2.0425 29.2479 2.88562 30.8106 3.39625C31.464 3.61202 32.0433 4.00773 32.4819 4.53792C32.9205 5.0681 33.2006 5.71126 33.2901 6.3935C34.7056 17.0264 31.421 24.9066 27.4358 30.1198C25.7458 32.3498 23.7307 34.3137 21.4579 35.9456C20.672 36.5103 19.8393 37.0069 18.9689 37.43C18.3039 37.7435 17.589 38 17 38C16.411 38 15.6985 37.7435 15.0311 37.43C14.1607 37.007 13.328 36.5104 12.5421 35.9456C10.2693 34.3136 8.25427 32.3498 6.56426 30.1198C2.57901 24.9066 -0.705612 17.0264 0.709888 6.3935C0.799395 5.71126 1.07954 5.0681 1.51814 4.53792C1.95674 4.00773 2.536 3.61202 3.18939 3.39625C5.45797 2.65242 7.74418 1.96347 10.046 1.33Z" fill="#FE724C"/>
</svg>
